<?xml version="1.0" encoding="UTF-8" standalone="no"?>
<svg
   version="1.1"
   id="Layer_1"
   x="0"
   y="0"
   width="57.778"
   height="50"
   xml:space="preserve"
   sodipodi:docname="logo_h.svg"
   inkscape:version="1.1.2 (1:1.1+202202050852+0a00cf5339)"
   xmlns:inkscape="http://www.inkscape.org/namespaces/inkscape"
   xmlns:sodipodi="http://sodipodi.sourceforge.net/DTD/sodipodi-0.dtd"
   xmlns="http://www.w3.org/2000/svg"
   xmlns:svg="http://www.w3.org/2000/svg"><defs
     id="defs25" /><sodipodi:namedview
     id="namedview23"
     pagecolor="#ffffff"
     bordercolor="#666666"
     borderopacity="1.0"
     inkscape:pageshadow="2"
     inkscape:pageopacity="0.0"
     inkscape:pagecheckerboard="0"
     showgrid="false"
     fit-margin-top="0"
     fit-margin-left="0"
     fit-margin-right="0"
     fit-margin-bottom="0"
     inkscape:zoom="1.7951871"
     inkscape:cx="134.24784"
     inkscape:cy="28.687817"
     inkscape:window-width="1848"
     inkscape:window-height="1136"
     inkscape:window-x="72"
     inkscape:window-y="27"
     inkscape:window-maximized="1"
     inkscape:current-layer="g18" /><style
     id="style2">.st1{fill:#45a349}</style><switch
     id="switch20"><g
       id="g18"><path
         class="st1"
         d="M 0,26.667 H 23.333 V 50 H 0 Z M 28.333,12.778 V 0 c 7.01,0 12.778,5.768 12.778,12.778 0,7.01 -5.768,12.778 -12.778,12.778 z"
         id="path8" /><path
         class="st1"
         d="M 28.333,37.222 V 24.444 c 7.01,0 12.778,5.768 12.778,12.778 C 41.111,44.232 35.343,50 28.333,50 Z M 45,12.778 V 0 c 7.01,0 12.778,5.768 12.778,12.778 0,7.01 -5.768,12.778 -12.778,12.778 z"
         id="path10" /><path
         class="st1"
         d="M 45,37.222 V 24.444 c 7.01,0 12.778,5.768 12.778,12.778 C 57.778,44.232 52.01,50 45,50 Z"
         id="path12" /><circle
         class="st1"
         cx="11.667"
         cy="11.667"
         r="11.667"
         id="circle14" /><path
         class="st1"
         d="m 11.667,11.111 v 1.111 m 0.555,-0.555 h -1.111"
         id="path16" /></g></switch></svg>
